<svg xmlns="http://www.w3.org/2000/svg" viewBox="0 0 200 200">
  <circle cx="100" cy="100" r="100" fill="#E0F2F1"/>
  <ellipse cx="100" cy="95" rx="55" ry="60" fill="#FFE0B2"/>
  <!-- 长直发 -->
  <path d="M45 70 Q40 20 100 15 Q160 20 155 70 L165 160 L35 160Z" fill="#1A1A2E"/>
  <!-- 刘海 -->
  <path d="M45 70 Q50 50 70 55 Q85 45 100 50 Q115 45 130 55 Q150 50 155 70 Q140 60 100 60 Q60 60 45 70Z" fill="#1A1A2E"/>
  <!-- 眼睛 -->
  <ellipse cx="78" cy="95" rx="8" ry="10" fill="#333"/>
  <ellipse cx="122" cy="95" rx="8" ry="10" fill="#333"/>
  <circle cx="80" cy="92" r="3" fill="white"/>
  <circle cx="124" cy="92" r="3" fill="white"/>
  <!-- 眉毛 -->
  <path d="M68 82 Q78 78 88 82" stroke="#1A1A2E" stroke-width="3" fill="none" stroke-linecap="round"/>
  <path d="M112 82 Q122 78 132 82" stroke="#1A1A2E" stroke-width="3" fill="none" stroke-linecap="round"/>
  <!-- 鼻子 -->
  <path d="M100 105 Q102 112 98 112" stroke="#D4A574" stroke-width="2" fill="none" stroke-linecap="round"/>
  <!-- 嘴巴 -->
  <path d="M85 125 Q100 138 115 125" stroke="#E85D75" stroke-width="3" fill="none" stroke-linecap="round"/>
  <!-- 腮红 -->
  <ellipse cx="65" cy="115" rx="12" ry="8" fill="#FFAB91" opacity="0.6"/>
  <ellipse cx="135" cy="115" rx="12" ry="8" fill="#FFAB91" opacity="0.6"/>
  <!-- 耳朵 -->
  <ellipse cx="48" cy="100" rx="8" ry="12" fill="#FFE0B2"/>
  <ellipse cx="152" cy="100" rx="8" ry="12" fill="#FFE0B2"/>
  <!-- 衣服 -->
  <path d="M45 150 Q100 140 155 150 L165 200 L35 200Z" fill="#00897B"/>
  <!-- 眼镜 -->
  <circle cx="78" cy="95" r="14" stroke="#333" stroke-width="2" fill="none"/>
  <circle cx="122" cy="95" r="14" stroke="#333" stroke-width="2" fill="none"/>
  <line x1="92" y1="95" x2="108" y2="95" stroke="#333" stroke-width="2"/>
</svg>