<svg xmlns="http://www.w3.org/2000/svg" viewBox="0 0 200 200">
  <circle cx="100" cy="100" r="100" fill="#E8F4FD"/>
  <ellipse cx="100" cy="95" rx="55" ry="60" fill="#F5DEB3"/>
  <!-- 丸子头发型 -->
  <circle cx="70" cy="45" r="25" fill="#2C1810"/>
  <circle cx="130" cy="45" r="25" fill="#2C1810"/>
  <path d="M50 70 Q50 25 100 20 Q150 25 150 70 Q155 100 145 120 L55 120 Q45 100 50 70Z" fill="#2C1810"/>
  <!-- 刘海 -->
  <path d="M50 70 Q60 55 75 60 Q90 50 100 55 Q110 50 125 60 Q140 55 150 70 Q130 62 100 62 Q70 62 50 70Z" fill="#2C1810"/>
  <!-- 眼睛 -->
  <ellipse cx="78" cy="95" rx="8" ry="10" fill="#333"/>
  <ellipse cx="122" cy="95" rx="8" ry="10" fill="#333"/>
  <circle cx="80" cy="92" r="3" fill="white"/>
  <circle cx="124" cy="92" r="3" fill="white"/>
  <!-- 眉毛 -->
  <path d="M68 82 Q78 78 88 82" stroke="#2C1810" stroke-width="3" fill="none" stroke-linecap="round"/>
  <path d="M112 82 Q122 78 132 82" stroke="#2C1810" stroke-width="3" fill="none" stroke-linecap="round"/>
  <!-- 鼻子 -->
  <path d="M100 105 Q102 112 98 112" stroke="#D4A574" stroke-width="2" fill="none" stroke-linecap="round"/>
  <!-- 微笑 -->
  <path d="M85 125 Q100 138 115 125" stroke="#E85D75" stroke-width="3" fill="none" stroke-linecap="round"/>
  <!-- 腮红 -->
  <ellipse cx="65" cy="115" rx="12" ry="8" fill="#FFB6C1" opacity="0.6"/>
  <ellipse cx="135" cy="115" rx="12" ry="8" fill="#FFB6C1" opacity="0.6"/>
  <!-- 耳朵 -->
  <ellipse cx="48" cy="100" rx="8" ry="12" fill="#F5DEB3"/>
  <ellipse cx="152" cy="100" rx="8" ry="12" fill="#F5DEB3"/>
  <!-- 衣服 -->
  <path d="M45 150 Q100 140 155 150 L165 200 L35 200Z" fill="#4A90E2"/>
  <circle cx="100" cy="165" r="8" fill="white" opacity="0.8"/>
</svg>