<svg xmlns="http://www.w3.org/2000/svg" viewBox="0 0 200 200">
  <circle cx="100" cy="100" r="100" fill="#F3E5F5"/>
  <ellipse cx="100" cy="95" rx="55" ry="60" fill="#F8BBD0"/>
  <!-- 短发 -->
  <path d="M45 70 Q40 30 70 25 Q100 18 130 25 Q160 30 155 70 Q160 100 150 115 L50 115 Q40 100 45 70Z" fill="#6A1B9A"/>
  <!-- 刘海 -->
  <path d="M45 70 Q50 50 70 55 Q85 45 100 50 Q115 45 130 55 Q150 50 155 70 Q140 60 100 60 Q60 60 45 70Z" fill="#6A1B9A"/>
  <!-- 眼睛 -->
  <ellipse cx="78" cy="95" rx="8" ry="10" fill="#333"/>
  <ellipse cx="122" cy="95" rx="8" ry="10" fill="#333"/>
  <circle cx="80" cy="92" r="3" fill="white"/>
  <circle cx="124" cy="92" r="3" fill="white"/>
  <!-- 眉毛 -->
  <path d="M68 82 Q78 78 88 82" stroke="#6A1B9A" stroke-width="3" fill="none" stroke-linecap="round"/>
  <path d="M112 82 Q122 78 132 82" stroke="#6A1B9A" stroke-width="3" fill="none" stroke-linecap="round"/>
  <!-- 鼻子 -->
  <path d="M100 105 Q102 112 98 112" stroke="#D4A574" stroke-width="2" fill="none" stroke-linecap="round"/>
  <!-- 嘴巴 -->
  <path d="M85 125 Q100 138 115 125" stroke="#E85D75" stroke-width="3" fill="none" stroke-linecap="round"/>
  <!-- 腮红 -->
  <ellipse cx="65" cy="115" rx="12" ry="8" fill="#F48FB1" opacity="0.6"/>
  <ellipse cx="135" cy="115" rx="12" ry="8" fill="#F48FB1" opacity="0.6"/>
  <!-- 耳朵 -->
  <ellipse cx="48" cy="100" rx="8" ry="12" fill="#F8BBD0"/>
  <ellipse cx="152" cy="100" rx="8" ry="12" fill="#F8BBD0"/>
  <!-- 衣服 -->
  <path d="M45 150 Q100 140 155 150 L165 200 L35 200Z" fill="#9C27B0"/>
  <!-- 蝴蝶结 -->
  <path d="M85 145 Q70 135 75 155 Q80 165 90 155Z" fill="#E1BEE7"/>
  <path d="M115 145 Q130 135 125 155 Q120 165 110 155Z" fill="#E1BEE7"/>
  <circle cx="100" cy="150" r="5" fill="#E1BEE7"/>
</svg>