<svg xmlns="http://www.w3.org/2000/svg" viewBox="0 0 200 200">
  <!-- 背景圆形 -->
  <circle cx="100" cy="100" r="100" fill="#FFE4EC"/>
  <!-- 脸部 -->
  <ellipse cx="100" cy="95" rx="55" ry="60" fill="#FFDBAC"/>
  <!-- 头发后部 -->
  <path d="M45 70 Q45 20 100 15 Q155 20 155 70 Q160 100 150 120 L50 120 Q40 100 45 70Z" fill="#8B4513"/>
  <!-- 刘海 -->
  <path d="M45 70 Q50 50 70 55 Q85 45 100 50 Q115 45 130 55 Q150 50 155 70 Q140 60 100 60 Q60 60 45 70Z" fill="#8B4513"/>
  <!-- 眼睛 -->
  <ellipse cx="78" cy="95" rx="8" ry="10" fill="#333"/>
  <ellipse cx="122" cy="95" rx="8" ry="10" fill="#333"/>
  <circle cx="80" cy="92" r="3" fill="white"/>
  <circle cx="124" cy="92" r="3" fill="white"/>
  <!-- 眉毛 -->
  <path d="M68 82 Q78 78 88 82" stroke="#8B4513" stroke-width="3" fill="none" stroke-linecap="round"/>
  <path d="M112 82 Q122 78 132 82" stroke="#8B4513" stroke-width="3" fill="none" stroke-linecap="round"/>
  <!-- 鼻子 -->
  <path d="M100 105 Q102 112 98 112" stroke="#D4A574" stroke-width="2" fill="none" stroke-linecap="round"/>
  <!-- 嘴巴 -->
  <path d="M85 125 Q100 138 115 125" stroke="#E85D75" stroke-width="3" fill="none" stroke-linecap="round"/>
  <!-- 腮红 -->
  <ellipse cx="65" cy="115" rx="12" ry="8" fill="#FFB6C1" opacity="0.6"/>
  <ellipse cx="135" cy="115" rx="12" ry="8" fill="#FFB6C1" opacity="0.6"/>
  <!-- 耳朵 -->
  <ellipse cx="48" cy="100" rx="8" ry="12" fill="#FFDBAC"/>
  <ellipse cx="152" cy="100" rx="8" ry="12" fill="#FFDBAC"/>
  <!-- 衣服 -->
  <path d="M45 150 Q100 140 155 150 L165 200 L35 200Z" fill="#FF6B9D"/>
  <!-- 衣领 -->
  <path d="M80 150 Q100 165 120 150" stroke="white" stroke-width="3" fill="none" stroke-linecap="round"/>
</svg>