<svg xmlns="http://www.w3.org/2000/svg" viewBox="0 0 100 100"><circle cx="50" cy="50" r="50" fill="#FFF8E1"/><circle cx="50" cy="42" r="22" fill="#FFECB3"/><circle cx="42" cy="38" r="3" fill="#333"/><circle cx="58" cy="38" r="3" fill="#333"/><path d="M44 48 Q50 54 56 48" stroke="#FFC107" stroke-width="2" fill="none" stroke-linecap="round"/><ellipse cx="35" cy="44" rx="5" ry="3" fill="#FFD54F" opacity="0.5"/><ellipse cx="65" cy="44" rx="5" ry="3" fill="#FFD54F" opacity="0.5"/><path d="M28 20 Q36 5 50 4 Q64 5 72 20 Q74 30 70 35 L66 26 Q60 16 50 14 Q40 16 34 26 L30 35 Q26 30 28 20Z" fill="#F57F17"/><circle cx="50" cy="70" r="12" fill="#FFCA28"/><rect x="44" y="62" width="12" height="8" rx="4" fill="#FFB300"/></svg>