<svg xmlns="http://www.w3.org/2000/svg" viewBox="0 0 100 100"><circle cx="50" cy="50" r="50" fill="#FFF3E0"/><circle cx="50" cy="42" r="22" fill="#FFCCBC"/><circle cx="42" cy="38" r="3" fill="#333"/><circle cx="58" cy="38" r="3" fill="#333"/><path d="M44 48 Q50 54 56 48" stroke="#FF5722" stroke-width="2" fill="none" stroke-linecap="round"/><ellipse cx="35" cy="44" rx="5" ry="3" fill="#FFAB91" opacity="0.5"/><ellipse cx="65" cy="44" rx="5" ry="3" fill="#FFAB91" opacity="0.5"/><path d="M32 20 Q38 6 50 4 Q62 6 68 20 Q70 30 66 35 L62 28 Q57 20 50 18 Q43 20 38 28 L34 35 Q30 30 32 20Z" fill="#BF360C"/><circle cx="50" cy="70" r="12" fill="#FF7043"/><rect x="44" y="62" width="12" height="8" rx="4" fill="#E64A19"/></svg>