<svg xmlns="http://www.w3.org/2000/svg" viewBox="0 0 100 100"><circle cx="50" cy="50" r="50" fill="#E8EAF6"/><circle cx="50" cy="42" r="22" fill="#C5CAE9"/><circle cx="42" cy="38" r="3" fill="#333"/><circle cx="58" cy="38" r="3" fill="#333"/><path d="M44 48 Q50 54 56 48" stroke="#3F51B5" stroke-width="2" fill="none" stroke-linecap="round"/><ellipse cx="35" cy="44" rx="5" ry="3" fill="#9FA8DA" opacity="0.5"/><ellipse cx="65" cy="44" rx="5" ry="3" fill="#9FA8DA" opacity="0.5"/><path d="M30 20 Q36 6 50 5 Q64 6 70 20 Q72 30 68 34 L64 26 Q58 18 50 16 Q42 18 36 26 L32 34 Q28 30 30 20Z" fill="#1A237E"/><circle cx="50" cy="70" r="12" fill="#5C6BC0"/><rect x="44" y="62" width="12" height="8" rx="4" fill="#3F51B5"/></svg>