<svg xmlns="http://www.w3.org/2000/svg" viewBox="0 0 100 100"><circle cx="50" cy="50" r="50" fill="#EFEBE9"/><circle cx="50" cy="42" r="22" fill="#D7CCC8"/><circle cx="42" cy="38" r="3" fill="#333"/><circle cx="58" cy="38" r="3" fill="#333"/><path d="M44 48 Q50 55 56 48" stroke="#795548" stroke-width="2" fill="none" stroke-linecap="round"/><ellipse cx="35" cy="44" rx="5" ry="3" fill="#BCAAA4" opacity="0.5"/><ellipse cx="65" cy="44" rx="5" ry="3" fill="#BCAAA4" opacity="0.5"/><path d="M28 22 Q36 8 50 6 Q64 8 72 22 Q74 32 70 36 L66 28 Q60 18 50 16 Q40 18 34 28 L30 36 Q26 32 28 22Z" fill="#3E2723"/><circle cx="50" cy="70" r="12" fill="#8D6E63"/><rect x="44" y="62" width="12" height="8" rx="4" fill="#6D4C41"/></svg>