<svg xmlns="http://www.w3.org/2000/svg" viewBox="0 0 100 100"><circle cx="50" cy="50" r="50" fill="#F3E5F5"/><circle cx="50" cy="42" r="22" fill="#E1BEE7"/><circle cx="42" cy="38" r="3" fill="#333"/><circle cx="58" cy="38" r="3" fill="#333"/><path d="M44 48 Q50 54 56 48" stroke="#9C27B0" stroke-width="2" fill="none" stroke-linecap="round"/><ellipse cx="35" cy="44" rx="5" ry="3" fill="#CE93D8" opacity="0.5"/><ellipse cx="65" cy="44" rx="5" ry="3" fill="#CE93D8" opacity="0.5"/><path d="M28 20 Q36 4 50 3 Q64 4 72 20 Q74 30 70 35 L66 26 Q60 16 50 14 Q40 16 34 26 L30 35 Q26 30 28 20Z" fill="#4A148C"/><circle cx="50" cy="70" r="12" fill="#AB47BC"/><rect x="44" y="62" width="12" height="8" rx="4" fill="#8E24AA"/></svg>