<svg xmlns="http://www.w3.org/2000/svg" viewBox="0 0 100 100"><circle cx="50" cy="50" r="50" fill="#E0F0FF"/><circle cx="50" cy="42" r="22" fill="#FFD4A8"/><circle cx="42" cy="38" r="3" fill="#333"/><circle cx="58" cy="38" r="3" fill="#333"/><path d="M44 48 Q50 54 56 48" stroke="#FF8C42" stroke-width="2" fill="none" stroke-linecap="round"/><ellipse cx="35" cy="44" rx="5" ry="3" fill="#FFB88C" opacity="0.5"/><ellipse cx="65" cy="44" rx="5" ry="3" fill="#FFB88C" opacity="0.5"/><path d="M28 22 Q35 5 50 4 Q65 5 72 22 Q74 32 70 36 L66 28 Q60 18 50 16 Q40 18 34 28 L30 36 Q26 32 28 22Z" fill="#2C1810"/><circle cx="50" cy="70" r="12" fill="#4A90D9"/><rect x="44" y="62" width="12" height="8" rx="4" fill="#357ABD"/></svg>