<svg xmlns="http://www.w3.org/2000/svg" viewBox="0 0 100 100"><circle cx="50" cy="50" r="50" fill="#FCE4EC"/><circle cx="50" cy="42" r="22" fill="#F8BBD0"/><circle cx="42" cy="38" r="3" fill="#333"/><circle cx="58" cy="38" r="3" fill="#333"/><path d="M44 48 Q50 54 56 48" stroke="#E91E63" stroke-width="2" fill="none" stroke-linecap="round"/><ellipse cx="35" cy="44" rx="5" ry="3" fill="#F48FB1" opacity="0.5"/><ellipse cx="65" cy="44" rx="5" ry="3" fill="#F48FB1" opacity="0.5"/><path d="M30 16 Q38 0 50 0 Q62 0 70 16 Q72 26 68 32 L64 22 Q58 12 50 10 Q42 12 36 22 L32 32 Q28 26 30 16Z" fill="#880E4F"/><circle cx="50" cy="70" r="12" fill="#EC407A"/><rect x="44" y="62" width="12" height="8" rx="4" fill="#D81B60"/></svg>