<svg xmlns="http://www.w3.org/2000/svg" viewBox="0 0 100 100"><circle cx="50" cy="50" r="50" fill="#E8FFE8"/><circle cx="50" cy="42" r="22" fill="#FFE0B2"/><circle cx="42" cy="38" r="3" fill="#333"/><circle cx="58" cy="38" r="3" fill="#333"/><path d="M44 48 Q50 55 56 48" stroke="#4CAF50" stroke-width="2" fill="none" stroke-linecap="round"/><ellipse cx="35" cy="44" rx="5" ry="3" fill="#FFCC80" opacity="0.5"/><ellipse cx="65" cy="44" rx="5" ry="3" fill="#FFCC80" opacity="0.5"/><path d="M30 18 Q40 2 50 2 Q60 2 70 18 Q72 28 68 34 L64 26 Q58 16 50 14 Q42 16 36 26 L32 34 Q28 28 30 18Z" fill="#FF9800"/><circle cx="50" cy="70" r="12" fill="#66BB6A"/><rect x="44" y="62" width="12" height="8" rx="4" fill="#43A047"/></svg>