<svg xmlns="http://www.w3.org/2000/svg" viewBox="0 0 100 100"><circle cx="50" cy="50" r="50" fill="#FFE0E6"/><circle cx="50" cy="42" r="22" fill="#FFB6C1"/><circle cx="42" cy="38" r="3" fill="#333"/><circle cx="58" cy="38" r="3" fill="#333"/><path d="M44 48 Q50 54 56 48" stroke="#FF6B8A" stroke-width="2" fill="none" stroke-linecap="round"/><ellipse cx="35" cy="44" rx="5" ry="3" fill="#FF9EB5" opacity="0.5"/><ellipse cx="65" cy="44" rx="5" ry="3" fill="#FF9EB5" opacity="0.5"/><path d="M30 20 Q35 8 50 6 Q65 8 70 20 Q72 30 68 35 L65 30 Q60 22 50 20 Q40 22 35 30 L32 35 Q28 30 30 20Z" fill="#8B4513"/><circle cx="50" cy="70" r="12" fill="#FFB6C1"/><rect x="44" y="62" width="12" height="8" rx="4" fill="#FF6B8A"/></svg>